<svg xmlns="http://www.w3.org/2000/svg" viewBox="0 0 1920 1080"><defs><style>.cls-1{fill:#2b2b2b;}.cls-2{fill:#5e5e5e;}.cls-10,.cls-11,.cls-3,.cls-5,.cls-6,.cls-7,.cls-8,.cls-9{fill:none;stroke:#000;stroke-width:10px;}.cls-3{stroke-linecap:round;stroke-linejoin:round;}.cls-4{opacity:0.3;}.cls-10,.cls-11,.cls-5,.cls-6,.cls-7,.cls-8,.cls-9{stroke-miterlimit:10;}.cls-6{stroke-dasharray:34.15 34.15;}.cls-7{stroke-dasharray:31.2 31.2;}.cls-8{stroke-dasharray:34.62 34.62;}.cls-9{stroke-dasharray:27.95 27.95;}.cls-10{stroke-dasharray:27.69 27.69;}.cls-11{stroke-dasharray:24.3 24.3;}</style></defs><title>header</title><g id="component"><g id="Contornos"><path class="cls-1" d="M365.72,862H354.34v29.66h-4.7V862H338.26v-4.37h27.46Z"/><path class="cls-1" d="M373.35,878.11v13.58h-4.51V856.94h4.51v14.35a7.92,7.92,0,0,1,7-3.36,7.55,7.55,0,0,1,6.12,2.54,9.92,9.92,0,0,1,2.14,6.58v14.64H384.1V877.82q0-5.8-5.37-5.81a4.75,4.75,0,0,0-3.89,1.7A7.18,7.18,0,0,0,373.35,878.11Z"/><path class="cls-1" d="M410.84,883.77l3.89,1.34a10.18,10.18,0,0,1-3.75,5.26,10.75,10.75,0,0,1-6.62,2,11.26,11.26,0,0,1-8.23-3.34,12,12,0,0,1-3.39-9,12.18,12.18,0,0,1,3.27-8.73,11.08,11.08,0,0,1,15.93-.17c2,2.19,2.93,5.13,2.93,8.81a9.69,9.69,0,0,1-.09,1.44H397.4a6.92,6.92,0,0,0,2,5,6.74,6.74,0,0,0,4.92,2A6.24,6.24,0,0,0,410.84,883.77Zm-13.3-6h12.63a5.81,5.81,0,0,0-6.34-5.9,5.91,5.91,0,0,0-4.41,1.75A6.27,6.27,0,0,0,397.54,877.77Z"/><path class="cls-1" d="M428.07,885.69l4.08-1.44a4.85,4.85,0,0,0,1.63,3.1,5.51,5.51,0,0,0,3.75,1.22,4.37,4.37,0,0,0,2.88-.89,2.75,2.75,0,0,0,1-2.18c0-1.54-1-2.53-3-3l-3.94-.86a7.56,7.56,0,0,1-4.22-2.31,6,6,0,0,1-1.54-4.17,6.65,6.65,0,0,1,2.43-5.14,8.38,8.38,0,0,1,5.78-2.16,11.26,11.26,0,0,1,3.94.65,6.76,6.76,0,0,1,2.68,1.7,9.93,9.93,0,0,1,1.44,2,8.39,8.39,0,0,1,.72,1.87l-4,1.49a4.72,4.72,0,0,0-.34-1.13,6.3,6.3,0,0,0-.74-1.22,3.45,3.45,0,0,0-1.46-1.08,5.81,5.81,0,0,0-2.26-.41,4.17,4.17,0,0,0-2.76.91,2.75,2.75,0,0,0-1.08,2.16c0,1.48.88,2.4,2.64,2.79l3.74.81a8.77,8.77,0,0,1,4.73,2.48,6.22,6.22,0,0,1,1.66,4.39,6.83,6.83,0,0,1-2.23,4.94,8.47,8.47,0,0,1-6.22,2.21,9.65,9.65,0,0,1-6.67-2.14A7.6,7.6,0,0,1,428.07,885.69Z"/><path class="cls-1" d="M450.66,862.15a3.1,3.1,0,0,1-.94-2.28,3.17,3.17,0,0,1,.94-2.31,3.05,3.05,0,0,1,2.28-1,3.16,3.16,0,0,1,2.3.94,3.11,3.11,0,0,1,1,2.33,3.08,3.08,0,0,1-1,2.28,3.19,3.19,0,0,1-2.3.93A3.1,3.1,0,0,1,450.66,862.15Zm4.53,29.54h-4.46V868.6h4.46Z"/><path class="cls-1" d="M466.14,891.69h-4.47V868.6H466v3.07a7,7,0,0,1,3-2.78,8.89,8.89,0,0,1,4-1,8.05,8.05,0,0,1,4.13,1.1,6.7,6.7,0,0,1,2.78,3.27,8.18,8.18,0,0,1,7.73-4.37,7.78,7.78,0,0,1,5.64,2.26c1.55,1.5,2.33,3.68,2.33,6.52v15h-4.47v-14.5a5.76,5.76,0,0,0-1.22-3.84,4.56,4.56,0,0,0-3.67-1.44,4.9,4.9,0,0,0-3.84,1.66,6,6,0,0,0-1.49,4.15v14h-4.51v-14.5a5.71,5.71,0,0,0-1.23-3.84,4.54,4.54,0,0,0-3.67-1.44,5,5,0,0,0-3.89,1.63,6,6,0,0,0-1.48,4.23Z"/><path class="cls-1" d="M506.07,900.81h-4.46V868.6H506v3.6a7.71,7.71,0,0,1,3-3,9.28,9.28,0,0,1,4.7-1.16,9.55,9.55,0,0,1,7.8,3.41,14.65,14.65,0,0,1-.09,17.38,9.74,9.74,0,0,1-7.85,3.45,9.41,9.41,0,0,1-4.51-1,7.61,7.61,0,0,1-3-2.69Zm13.63-20.69a8.85,8.85,0,0,0-1.85-5.78,6,6,0,0,0-5-2.28,6.15,6.15,0,0,0-5,2.28,8.71,8.71,0,0,0-1.9,5.78,8.86,8.86,0,0,0,1.9,5.88,6.52,6.52,0,0,0,9.91,0A9,9,0,0,0,519.7,880.12Z"/><path class="cls-1" d="M533.38,891.69h-4.51V856.94h4.51Z"/><path class="cls-1" d="M556.09,883.77l3.88,1.34a10.21,10.21,0,0,1-3.74,5.26,10.75,10.75,0,0,1-6.62,2,11.28,11.28,0,0,1-8.24-3.34,12.07,12.07,0,0,1-3.38-9,12.22,12.22,0,0,1,3.26-8.73,11.09,11.09,0,0,1,15.94-.17,12.77,12.77,0,0,1,2.93,8.81,8.39,8.39,0,0,1-.1,1.44H542.65a6.92,6.92,0,0,0,2,5,6.71,6.71,0,0,0,4.92,2A6.25,6.25,0,0,0,556.09,883.77Zm-13.3-6h12.62a5.8,5.8,0,0,0-6.33-5.9,5.94,5.94,0,0,0-4.42,1.75A6.3,6.3,0,0,0,542.79,877.77Z"/><path class="cls-1" d="M562.52,885.69l4.08-1.44a4.8,4.8,0,0,0,1.63,3.1,5.5,5.5,0,0,0,3.74,1.22,4.33,4.33,0,0,0,2.88-.89,2.73,2.73,0,0,0,1.06-2.18c0-1.54-1-2.53-3-3l-3.93-.86a7.62,7.62,0,0,1-4.23-2.31,6.07,6.07,0,0,1-1.53-4.17,6.68,6.68,0,0,1,2.42-5.14,8.42,8.42,0,0,1,5.79-2.16,11.17,11.17,0,0,1,3.93.65,6.81,6.81,0,0,1,2.69,1.7,9.93,9.93,0,0,1,1.44,2,8.39,8.39,0,0,1,.72,1.87l-4,1.49a5.23,5.23,0,0,0-.34-1.13,6.84,6.84,0,0,0-.74-1.22,3.49,3.49,0,0,0-1.47-1.08,5.76,5.76,0,0,0-2.25-.41,4.17,4.17,0,0,0-2.76.91,2.75,2.75,0,0,0-1.08,2.16c0,1.48.88,2.4,2.64,2.79l3.74.81a8.81,8.81,0,0,1,4.73,2.48,6.25,6.25,0,0,1,1.65,4.39,6.79,6.79,0,0,1-2.23,4.94,8.46,8.46,0,0,1-6.21,2.21,9.68,9.68,0,0,1-6.68-2.14A7.53,7.53,0,0,1,562.52,885.69Z"/><path class="cls-1" d="M591.22,861.31v7.29h5v4.08h-5v12a2.75,2.75,0,0,0,3.22,3.17,7.22,7.22,0,0,0,1.77-.19v3.84a8.87,8.87,0,0,1-3.07.43,6.36,6.36,0,0,1-4.7-1.73,6.57,6.57,0,0,1-1.73-4.85V872.68h-4.42V868.6h1.25a3.44,3.44,0,0,0,2.67-1,3.7,3.7,0,0,0,.88-2.57v-3.74Z"/><path class="cls-1" d="M623.43,872.68h-5.57v19h-4.65v-19h-4.28V868.6h4.28v-3.89a7.72,7.72,0,0,1,2.16-5.8,7.43,7.43,0,0,1,5.42-2.12,4.94,4.94,0,0,1,2.69.48v4a5.28,5.28,0,0,0-2-.29,3.88,3.88,0,0,0-2.57.89,3.73,3.73,0,0,0-1.08,3v3.65h5.57Z"/><path class="cls-1" d="M639.89,868.36v4.8a14.85,14.85,0,0,0-2-.14q-6.33,0-6.33,7.1v11.57h-4.51V868.6h4.41v4a7.15,7.15,0,0,1,6.91-4.41A8,8,0,0,1,639.89,868.36Z"/><path class="cls-1" d="M642.05,885.5a6.24,6.24,0,0,1,1.92-4.78,9,9,0,0,1,5.09-2.23l6.24-.91c1.18-.16,1.78-.74,1.78-1.73a3.88,3.88,0,0,0-1.25-3,5.39,5.39,0,0,0-3.75-1.15,5.1,5.1,0,0,0-3.64,1.27,5.31,5.31,0,0,0-1.59,3.39l-4.32-1a7.55,7.55,0,0,1,3-5.4,10.17,10.17,0,0,1,6.43-2.09q4.89,0,7.25,2.38a8.29,8.29,0,0,1,2.35,6.07V887.9a22.28,22.28,0,0,0,.29,3.79h-4.42a19,19,0,0,1-.24-3.12,8.66,8.66,0,0,1-2.81,2.69,8.57,8.57,0,0,1-4.63,1.15,7.79,7.79,0,0,1-5.57-2A6.46,6.46,0,0,1,642.05,885.5Zm8.35,3.12a7,7,0,0,0,4.85-1.63q1.83-1.63,1.83-5.19v-1l-7.06,1a4.46,4.46,0,0,0-2.45,1.11,3.07,3.07,0,0,0-.91,2.35,3.18,3.18,0,0,0,1,2.35A3.72,3.72,0,0,0,650.4,888.62Z"/><path class="cls-1" d="M671.86,891.69H667.4V868.6h4.32v3.07a6.94,6.94,0,0,1,3-2.78,8.92,8.92,0,0,1,4-1,8,8,0,0,1,4.13,1.1,6.72,6.72,0,0,1,2.79,3.27,8.16,8.16,0,0,1,7.72-4.37,7.78,7.78,0,0,1,5.64,2.26c1.56,1.5,2.33,3.68,2.33,6.52v15h-4.46v-14.5a5.71,5.71,0,0,0-1.23-3.84,4.54,4.54,0,0,0-3.67-1.44,4.9,4.9,0,0,0-3.84,1.66,6,6,0,0,0-1.49,4.15v14h-4.51v-14.5a5.76,5.76,0,0,0-1.22-3.84,4.56,4.56,0,0,0-3.67-1.44,5,5,0,0,0-3.89,1.63,6.05,6.05,0,0,0-1.49,4.23Z"/><path class="cls-1" d="M723.56,883.77l3.88,1.34a10.21,10.21,0,0,1-3.74,5.26,10.75,10.75,0,0,1-6.62,2,11.28,11.28,0,0,1-8.24-3.34,12.07,12.07,0,0,1-3.38-9,12.22,12.22,0,0,1,3.26-8.73,11.09,11.09,0,0,1,15.94-.17,12.77,12.77,0,0,1,2.93,8.81,8.39,8.39,0,0,1-.1,1.44H710.12a6.92,6.92,0,0,0,2,5,6.71,6.71,0,0,0,4.92,2A6.25,6.25,0,0,0,723.56,883.77Zm-13.3-6h12.62a5.8,5.8,0,0,0-6.33-5.9,5.94,5.94,0,0,0-4.42,1.75A6.3,6.3,0,0,0,710.26,877.77Z"/><path class="cls-1" d="M744.92,868.6h4.65l6,17.38,5.09-17.38h4.75l-7.49,23.09h-4.65l-6.15-17.57-6,17.57h-4.75l-7.58-23.09h4.94L738.92,886Z"/><path class="cls-1" d="M769.71,871.36a12,12,0,0,1,16.94,0,12.13,12.13,0,0,1,3.34,8.76,12.3,12.3,0,0,1-3.31,8.81,12.12,12.12,0,0,1-17,0,12.3,12.3,0,0,1-3.31-8.81A12.13,12.13,0,0,1,769.71,871.36Zm3.36,14.83a7.06,7.06,0,0,0,10.22,0,9.79,9.79,0,0,0,0-12.09,7.06,7.06,0,0,0-10.22,0,9.79,9.79,0,0,0,0,12.09Z"/><path class="cls-1" d="M807.36,868.36v4.8a14.7,14.7,0,0,0-2-.14q-6.35,0-6.34,7.1v11.57h-4.51V868.6H799v4a7.17,7.17,0,0,1,6.92-4.41A8,8,0,0,1,807.36,868.36Z"/><path class="cls-1" d="M831.65,868.6l-9.84,9.75,10,13.34h-5.66l-7.54-10.18-3.21,3.22v7H811V856.94h4.47v21.89l10-10.23Z"/><path class="cls-1" d="M851.81,861.31v7.29h5v4.08h-5v12a2.74,2.74,0,0,0,3.22,3.17,7.22,7.22,0,0,0,1.77-.19v3.84a8.9,8.9,0,0,1-3.07.43,6.36,6.36,0,0,1-4.7-1.73,6.57,6.57,0,0,1-1.73-4.85V872.68h-4.42V868.6h1.25a3.42,3.42,0,0,0,2.66-1,3.66,3.66,0,0,0,.89-2.57v-3.74Z"/><path class="cls-1" d="M862.78,871.36a12,12,0,0,1,16.94,0,12.13,12.13,0,0,1,3.34,8.76,12.26,12.26,0,0,1-3.31,8.81,12.11,12.11,0,0,1-17,0,13.25,13.25,0,0,1,0-17.57Zm3.36,14.83a7.06,7.06,0,0,0,10.22,0,9.79,9.79,0,0,0,0-12.09,7.06,7.06,0,0,0-10.22,0,9.79,9.79,0,0,0,0,12.09Z"/><path class="cls-1" d="M911.43,868.6h4.65l6,17.38,5.09-17.38h4.75l-7.49,23.09h-4.65l-6.15-17.57-6,17.57h-4.75L895.3,868.6h4.94L905.43,886Z"/><path class="cls-1" d="M936.22,871.36a12,12,0,0,1,16.94,0,12.13,12.13,0,0,1,3.34,8.76,12.26,12.26,0,0,1-3.31,8.81,12.12,12.12,0,0,1-17,0,12.3,12.3,0,0,1-3.31-8.81A12.13,12.13,0,0,1,936.22,871.36Zm3.36,14.83a7.06,7.06,0,0,0,10.22,0,9.79,9.79,0,0,0,0-12.09,7.06,7.06,0,0,0-10.22,0,9.79,9.79,0,0,0,0,12.09Z"/><path class="cls-1" d="M973.87,868.36v4.8a14.7,14.7,0,0,0-2-.14q-6.35,0-6.34,7.1v11.57h-4.51V868.6h4.41v4a7.17,7.17,0,0,1,6.92-4.41A8,8,0,0,1,973.87,868.36Z"/><path class="cls-1" d="M998.16,868.6l-9.84,9.75,10,13.34h-5.66l-7.54-10.18-3.21,3.22v7h-4.47V856.94h4.47v21.89l10-10.23Z"/><path class="cls-1" d="M1025.28,868.6h4.66l6,17.38L1041,868.6h4.75l-7.49,23.09h-4.66l-6.14-17.57-6,17.57h-4.75l-7.59-23.09h5l5.18,17.38Z"/><path class="cls-1" d="M1049.06,862.15a3.13,3.13,0,0,1-.93-2.28,3.2,3.2,0,0,1,.93-2.31,3.09,3.09,0,0,1,2.29-1,3.16,3.16,0,0,1,2.3.94,3.11,3.11,0,0,1,1,2.33,3.08,3.08,0,0,1-1,2.28,3.19,3.19,0,0,1-2.3.93A3.14,3.14,0,0,1,1049.06,862.15Zm4.54,29.54h-4.46V868.6h4.46Z"/><path class="cls-1" d="M1066.13,861.31v7.29h5v4.08h-5v12a2.74,2.74,0,0,0,3.22,3.17,7.22,7.22,0,0,0,1.77-.19v3.84a8.9,8.9,0,0,1-3.07.43,6.34,6.34,0,0,1-4.7-1.73,6.53,6.53,0,0,1-1.73-4.85V872.68h-4.42V868.6h1.25a3.42,3.42,0,0,0,2.66-1,3.66,3.66,0,0,0,.89-2.57v-3.74Z"/><path class="cls-1" d="M1080.43,878.11v13.58h-4.51V856.94h4.51v14.35a7.92,7.92,0,0,1,7-3.36,7.55,7.55,0,0,1,6.12,2.54,9.92,9.92,0,0,1,2.14,6.58v14.64h-4.52V877.82q0-5.8-5.37-5.81a4.75,4.75,0,0,0-3.89,1.7A7.18,7.18,0,0,0,1080.43,878.11Z"/><path class="cls-1" d="M1132.27,868.6l-9.21,23.09h-4.56l-9.36-23.09h5.09l6.57,17.81,6.62-17.81Z"/><path class="cls-1" d="M1133.71,885.5a6.24,6.24,0,0,1,1.92-4.78,9,9,0,0,1,5.09-2.23l6.24-.91c1.18-.16,1.78-.74,1.78-1.73a3.88,3.88,0,0,0-1.25-3,5.39,5.39,0,0,0-3.75-1.15,5.1,5.1,0,0,0-3.64,1.27,5.31,5.31,0,0,0-1.59,3.39l-4.32-1a7.55,7.55,0,0,1,3-5.4,10.17,10.17,0,0,1,6.43-2.09q4.89,0,7.25,2.38a8.29,8.29,0,0,1,2.35,6.07V887.9a23.35,23.35,0,0,0,.29,3.79h-4.42a19,19,0,0,1-.24-3.12,8.66,8.66,0,0,1-2.81,2.69,8.57,8.57,0,0,1-4.63,1.15,7.79,7.79,0,0,1-5.57-2A6.46,6.46,0,0,1,1133.71,885.5Zm8.35,3.12a7,7,0,0,0,4.85-1.63q1.83-1.63,1.83-5.19v-1l-7.06,1a4.46,4.46,0,0,0-2.45,1.11,3.07,3.07,0,0,0-.91,2.35,3.18,3.18,0,0,0,1,2.35A3.72,3.72,0,0,0,1142.06,888.62Z"/><path class="cls-1" d="M1163.57,878.35v13.34h-4.51V868.6h4.41v3.31a7.67,7.67,0,0,1,7.11-4,7.58,7.58,0,0,1,6.12,2.54,9.91,9.91,0,0,1,2.13,6.58v14.64h-4.51V877.82q0-5.8-5.38-5.81a4.77,4.77,0,0,0-4,1.8A7.13,7.13,0,0,0,1163.57,878.35Z"/><path class="cls-1" d="M1184.76,862.15a3.14,3.14,0,0,1-.94-2.28,3.21,3.21,0,0,1,.94-2.31,3.05,3.05,0,0,1,2.28-1,3.15,3.15,0,0,1,2.3.94,3.11,3.11,0,0,1,1,2.33,3.08,3.08,0,0,1-1,2.28,3.18,3.18,0,0,1-2.3.93A3.1,3.1,0,0,1,1184.76,862.15Zm4.54,29.54h-4.47V868.6h4.47Z"/><path class="cls-1" d="M1200.29,891.69h-4.51V856.94h4.51Z"/><path class="cls-1" d="M1211.28,891.69h-4.51V856.94h4.51Z"/><path class="cls-1" d="M1216.32,885.5a6.24,6.24,0,0,1,1.92-4.78,9,9,0,0,1,5.09-2.23l6.24-.91c1.18-.16,1.77-.74,1.77-1.73a3.87,3.87,0,0,0-1.24-3,5.41,5.41,0,0,0-3.75-1.15,5.15,5.15,0,0,0-3.65,1.27,5.35,5.35,0,0,0-1.58,3.39l-4.32-1a7.54,7.54,0,0,1,3-5.4,10.22,10.22,0,0,1,6.44-2.09c3.26,0,5.68.79,7.24,2.38a8.26,8.26,0,0,1,2.36,6.07V887.9a23.4,23.4,0,0,0,.28,3.79h-4.41a19,19,0,0,1-.24-3.12,8.42,8.42,0,0,1-7.44,3.84,7.79,7.79,0,0,1-5.57-2A6.46,6.46,0,0,1,1216.32,885.5Zm8.35,3.12a7,7,0,0,0,4.85-1.63c1.22-1.09,1.82-2.82,1.82-5.19v-1l-7,1a4.43,4.43,0,0,0-2.45,1.11,3.07,3.07,0,0,0-.91,2.35,3.18,3.18,0,0,0,1,2.35A3.72,3.72,0,0,0,1224.67,888.62Z"/><path class="cls-1" d="M1283.9,884.59l7.35-26.93h4.85l-9.7,34h-4.85l-8.88-27.6-8.78,27.6h-4.71l-9.84-34h4.85l7.49,26.64,8.54-26.64h5Z"/><path class="cls-1" d="M1314,883.77l3.89,1.34a10.18,10.18,0,0,1-3.75,5.26,10.75,10.75,0,0,1-6.62,2,11.26,11.26,0,0,1-8.23-3.34,12,12,0,0,1-3.39-9,12.18,12.18,0,0,1,3.27-8.73,11.08,11.08,0,0,1,15.93-.17c2,2.19,2.93,5.13,2.93,8.81a9.69,9.69,0,0,1-.09,1.44h-17.38a6.92,6.92,0,0,0,2,5,6.74,6.74,0,0,0,4.92,2A6.24,6.24,0,0,0,1314,883.77Zm-13.3-6h12.63a5.81,5.81,0,0,0-6.34-5.9,5.91,5.91,0,0,0-4.41,1.75A6.27,6.27,0,0,0,1300.7,877.77Z"/><path class="cls-1" d="M1327.06,891.69h-4.47V856.94h4.47v14.93a7.15,7.15,0,0,1,2.9-2.81,10.6,10.6,0,0,1,12.55,2.28,14.91,14.91,0,0,1-.09,17.49,9.69,9.69,0,0,1-7.88,3.48c-3.45,0-6-1.32-7.48-4Zm11.76-5.66a9.16,9.16,0,0,0,1.87-6,8.88,8.88,0,0,0-1.85-5.93,6.17,6.17,0,0,0-5-2.19,6.26,6.26,0,0,0-4.94,2.21A8.68,8.68,0,0,0,1327,880a9,9,0,0,0,1.92,6,6.53,6.53,0,0,0,9.89,0Z"/><path class="cls-1" d="M1365.07,892.41a16.57,16.57,0,0,1-11.93-4.8q-5-4.8-5-13a18.21,18.21,0,0,1,2.49-9.6,16.09,16.09,0,0,1,6.29-6.12,17.16,17.16,0,0,1,8.11-2,16,16,0,0,1,9.72,2.9,13.8,13.8,0,0,1,5.26,7.9l-4.37,1.53a10.26,10.26,0,0,0-3.7-5.92,11,11,0,0,0-6.91-2.09,11.65,11.65,0,0,0-8.54,3.53q-3.55,3.53-3.55,9.86t3.55,9.89a11.63,11.63,0,0,0,8.54,3.55,10.76,10.76,0,0,0,7-2.23,11.69,11.69,0,0,0,3.89-5.93l4.18,1.53a14.69,14.69,0,0,1-5.36,7.95A15.54,15.54,0,0,1,1365.07,892.41Z"/><path class="cls-1" d="M1385.11,871.36a12.06,12.06,0,0,1,17,0,13.28,13.28,0,0,1,0,17.57,12.11,12.11,0,0,1-17,0,13.28,13.28,0,0,1,0-17.57Zm3.36,14.83a7.07,7.07,0,0,0,10.23,0,9.82,9.82,0,0,0,0-12.09,7.07,7.07,0,0,0-10.23,0,9.79,9.79,0,0,0,0,12.09Z"/><path class="cls-1" d="M1414.42,891.69H1410V868.6h4.32v3.07a7,7,0,0,1,3-2.78,8.89,8.89,0,0,1,4-1,8.05,8.05,0,0,1,4.13,1.1,6.7,6.7,0,0,1,2.78,3.27,8.18,8.18,0,0,1,7.73-4.37,7.78,7.78,0,0,1,5.64,2.26c1.55,1.5,2.33,3.68,2.33,6.52v15h-4.47v-14.5a5.71,5.71,0,0,0-1.22-3.84,4.56,4.56,0,0,0-3.67-1.44,4.9,4.9,0,0,0-3.84,1.66,6,6,0,0,0-1.49,4.15v14h-4.51v-14.5a5.71,5.71,0,0,0-1.23-3.84,4.54,4.54,0,0,0-3.67-1.44,5.06,5.06,0,0,0-3.89,1.63,6,6,0,0,0-1.48,4.23Z"/><path class="cls-1" d="M1454.35,900.81h-4.46V868.6h4.37v3.6a7.71,7.71,0,0,1,3-3,9.28,9.28,0,0,1,4.7-1.16,9.55,9.55,0,0,1,7.8,3.41,14.65,14.65,0,0,1-.09,17.38,9.73,9.73,0,0,1-7.85,3.45,9.41,9.41,0,0,1-4.51-1,7.68,7.68,0,0,1-3-2.69ZM1468,880.12a8.9,8.9,0,0,0-1.84-5.78,6.08,6.08,0,0,0-5-2.28,6.15,6.15,0,0,0-5,2.28,8.77,8.77,0,0,0-1.9,5.78,8.91,8.91,0,0,0,1.9,5.88,6.15,6.15,0,0,0,5,2.28,6.07,6.07,0,0,0,4.94-2.28A9,9,0,0,0,1468,880.12Z"/><path class="cls-1" d="M1478.57,871.36a12,12,0,0,1,16.94,0,13.25,13.25,0,0,1,0,17.57,12.11,12.11,0,0,1-17,0,12.3,12.3,0,0,1-3.31-8.81A12.13,12.13,0,0,1,1478.57,871.36Zm3.36,14.83a7.06,7.06,0,0,0,10.22,0,9.79,9.79,0,0,0,0-12.09,7.06,7.06,0,0,0-10.22,0,9.79,9.79,0,0,0,0,12.09Z"/><path class="cls-1" d="M1507.92,878.35v13.34h-4.51V868.6h4.41v3.31a7.67,7.67,0,0,1,7.11-4,7.58,7.58,0,0,1,6.12,2.54,9.91,9.91,0,0,1,2.13,6.58v14.64h-4.51V877.82q0-5.8-5.38-5.81a4.77,4.77,0,0,0-4,1.8A7.13,7.13,0,0,0,1507.92,878.35Z"/><path class="cls-1" d="M1545.41,883.77l3.88,1.34a10.21,10.21,0,0,1-3.74,5.26,10.75,10.75,0,0,1-6.62,2,11.28,11.28,0,0,1-8.24-3.34,12.07,12.07,0,0,1-3.38-9,12.22,12.22,0,0,1,3.26-8.73,11.09,11.09,0,0,1,15.94-.17,12.77,12.77,0,0,1,2.93,8.81,8.39,8.39,0,0,1-.1,1.44H1532a6.92,6.92,0,0,0,2,5,6.71,6.71,0,0,0,4.92,2A6.25,6.25,0,0,0,1545.41,883.77Zm-13.3-6h12.62a5.8,5.8,0,0,0-6.33-5.9,5.94,5.94,0,0,0-4.42,1.75A6.3,6.3,0,0,0,1532.11,877.77Z"/><path class="cls-1" d="M1558.51,878.35v13.34H1554V868.6h4.41v3.31a7.67,7.67,0,0,1,7.11-4,7.58,7.58,0,0,1,6.12,2.54,9.91,9.91,0,0,1,2.13,6.58v14.64h-4.51V877.82q0-5.8-5.38-5.81a4.77,4.77,0,0,0-4,1.8A7.13,7.13,0,0,0,1558.51,878.35Z"/><path class="cls-1" d="M1585.82,861.31v7.29h5v4.08h-5v12a2.75,2.75,0,0,0,3.22,3.17,7.22,7.22,0,0,0,1.77-.19v3.84a8.87,8.87,0,0,1-3.07.43,6.36,6.36,0,0,1-4.7-1.73,6.57,6.57,0,0,1-1.73-4.85V872.68h-4.42V868.6h1.25a3.44,3.44,0,0,0,2.67-1,3.7,3.7,0,0,0,.88-2.57v-3.74Z"/><path class="cls-1" d="M1593.69,885.69l4.08-1.44a4.85,4.85,0,0,0,1.63,3.1,5.51,5.51,0,0,0,3.75,1.22,4.37,4.37,0,0,0,2.88-.89,2.75,2.75,0,0,0,1-2.18c0-1.54-1-2.53-3-3l-3.94-.86a7.56,7.56,0,0,1-4.22-2.31,6,6,0,0,1-1.54-4.17,6.65,6.65,0,0,1,2.43-5.14,8.38,8.38,0,0,1,5.78-2.16,11.26,11.26,0,0,1,3.94.65,6.88,6.88,0,0,1,2.69,1.7,10.25,10.25,0,0,1,1.43,2,8.39,8.39,0,0,1,.72,1.87l-4,1.49a4.72,4.72,0,0,0-.34-1.13,6.3,6.3,0,0,0-.74-1.22,3.45,3.45,0,0,0-1.46-1.08,5.81,5.81,0,0,0-2.26-.41,4.17,4.17,0,0,0-2.76.91,2.75,2.75,0,0,0-1.08,2.16c0,1.48.88,2.4,2.64,2.79l3.75.81a8.77,8.77,0,0,1,4.72,2.48,6.22,6.22,0,0,1,1.66,4.39,6.83,6.83,0,0,1-2.23,4.94,8.47,8.47,0,0,1-6.22,2.21,9.65,9.65,0,0,1-6.67-2.14A7.6,7.6,0,0,1,1593.69,885.69Z"/><path class="cls-1" d="M1616.83,891a3.19,3.19,0,0,1-1-2.35,3.29,3.29,0,0,1,1-2.38,3.17,3.17,0,0,1,2.35-1,3.35,3.35,0,0,1,3.36,3.36,3.17,3.17,0,0,1-1,2.35,3.29,3.29,0,0,1-2.38,1A3.19,3.19,0,0,1,1616.83,891Z"/><path class="cls-1" d="M825.76,655.71a7.44,7.44,0,0,0-5.54,2.25,8.44,8.44,0,0,0-2.21,6.19,8.21,8.21,0,0,0,2.28,6.12,7.71,7.71,0,0,0,5.61,2.24,6.95,6.95,0,0,0,7-5l9.11,2.79a15.43,15.43,0,0,1-5.47,8.29A16.28,16.28,0,0,1,825.9,682,17.9,17.9,0,0,1,813,677a17,17,0,0,1-5.27-12.81,17.45,17.45,0,0,1,17.82-18,16.7,16.7,0,0,1,10.81,3.4,15.28,15.28,0,0,1,5.44,8.37l-9.25,2.79a7.15,7.15,0,0,0-2.31-3.61A6.75,6.75,0,0,0,825.76,655.71Z"/><path class="cls-1" d="M861.8,646.19a17.57,17.57,0,0,1,12.82,5,18.7,18.7,0,0,1,0,25.73,18.65,18.65,0,0,1-25.6,0,18.52,18.52,0,0,1,0-25.67A17.53,17.53,0,0,1,861.8,646.19Zm0,26.32a7.4,7.4,0,0,0,5.41-2.18,8.39,8.39,0,0,0,2.21-6.25,8.27,8.27,0,0,0-2.21-6.22,7.79,7.79,0,0,0-10.78,0,8.2,8.2,0,0,0-2.24,6.19,8.32,8.32,0,0,0,2.24,6.22A7.41,7.41,0,0,0,861.8,672.51Z"/><path class="cls-1" d="M895.05,681H884.72v-33.8h9.86v3.88a8.83,8.83,0,0,1,4-3.54,13.11,13.11,0,0,1,5.68-1.36q7.28,0,10,5.31a12,12,0,0,1,10.47-5.31,12.87,12.87,0,0,1,8.91,3.23q3.6,3.24,3.6,9.69V681h-10V661.43a6.18,6.18,0,0,0-1.36-4.12,5,5,0,0,0-4-1.6,5.23,5.23,0,0,0-4.14,1.7,6,6,0,0,0-1.5,4.08V681h-10.2V661.43a6.09,6.09,0,0,0-1.39-4.12,5.11,5.11,0,0,0-4-1.6,5.17,5.17,0,0,0-4.08,1.7,6.07,6.07,0,0,0-1.5,4.15Z"/><path class="cls-1" d="M954.62,693.93H944.29V647.21h10v3.47a9,9,0,0,1,3.84-3,14.17,14.17,0,0,1,6.09-1.26,14.36,14.36,0,0,1,11.46,4.93q4.25,4.93,4.25,12.68a18.29,18.29,0,0,1-4.52,12.75,15,15,0,0,1-11.6,5q-6.39,0-9.18-3.4Zm13-23.63a8.42,8.42,0,0,0,2.21-6.22,8.3,8.3,0,0,0-2.21-6.19,7.52,7.52,0,0,0-5.48-2.18,7.4,7.4,0,0,0-5.4,2.18,8.26,8.26,0,0,0-2.21,6.19,8.38,8.38,0,0,0,2.21,6.22,7.35,7.35,0,0,0,5.4,2.21A7.47,7.47,0,0,0,967.58,670.3Z"/><path class="cls-1" d="M1000.39,646.19a17.55,17.55,0,0,1,12.81,5,18.67,18.67,0,0,1,0,25.73,18.65,18.65,0,0,1-25.6,0,18.52,18.52,0,0,1,0-25.67A17.56,17.56,0,0,1,1000.39,646.19Zm0,26.32a7.36,7.36,0,0,0,5.4-2.18,8.39,8.39,0,0,0,2.21-6.25,8.27,8.27,0,0,0-2.21-6.22,7.79,7.79,0,0,0-10.78,0,8.24,8.24,0,0,0-2.24,6.19A8.36,8.36,0,0,0,995,670.3,7.42,7.42,0,0,0,1000.39,672.51Z"/><path class="cls-1" d="M1033.64,661.63V681H1023.3v-33.8h10v3.88a8.61,8.61,0,0,1,4-3.5,12.79,12.79,0,0,1,5.48-1.26q6,0,9.18,3.77a14.72,14.72,0,0,1,3.13,9.69V681h-10.34V661.56a6.23,6.23,0,0,0-1.39-4.25,5.91,5.91,0,0,0-8.16.07A6,6,0,0,0,1033.64,661.63Z"/><path class="cls-1" d="M1084.16,668.84l8.64,2.45a14,14,0,0,1-5.38,7.71,16.64,16.64,0,0,1-10.2,3,17.38,17.38,0,0,1-12.47-4.9q-5.14-4.89-5.14-13.12a17.33,17.33,0,0,1,5-12.85,16.27,16.27,0,0,1,11.87-5q7.88,0,12.41,4.59t4.52,12.75a13.79,13.79,0,0,1-.21,3.2h-23.52a6.24,6.24,0,0,0,2.38,4.66,8,8,0,0,0,5.3,1.87Q1082.59,673.26,1084.16,668.84Zm-14.28-8.77h13.53a6.11,6.11,0,0,0-1.8-4,6.72,6.72,0,0,0-5-1.7,6.44,6.44,0,0,0-4.76,1.77A6.37,6.37,0,0,0,1069.88,660.07Z"/><path class="cls-1" d="M1108.71,661.63V681h-10.34v-33.8h10v3.88a8.59,8.59,0,0,1,4-3.5,12.74,12.74,0,0,1,5.47-1.26q6,0,9.18,3.77a14.72,14.72,0,0,1,3.13,9.69V681h-10.34V661.56a6.23,6.23,0,0,0-1.39-4.25,5.91,5.91,0,0,0-8.16.07A6,6,0,0,0,1108.71,661.63Z"/><path class="cls-1" d="M1149.51,637.35v9.86h6.59v9h-6.59v12.65c0,2.35,1.24,3.53,3.74,3.53a12.23,12.23,0,0,0,2.72-.34v8.57a12.35,12.35,0,0,1-5.38,1,11.38,11.38,0,0,1-8.26-2.92,10.54,10.54,0,0,1-3-8V656.26h-6v-9h1.7a4.89,4.89,0,0,0,3.91-1.53,5.81,5.81,0,0,0,1.33-4v-4.36Z"/><path class="cls-2" d="M856.39,765.4h-22V730.66h22V738H842.09v6.61H855v6.81H842.09v6.67h14.3Z"/><path class="cls-2" d="M868.64,765.4H861.2V729.92h7.44Z"/><path class="cls-2" d="M889.91,756.63l6.22,1.76a10.08,10.08,0,0,1-3.87,5.56,12,12,0,0,1-7.35,2.18,13.19,13.19,0,0,1-9.09-22.24,11.7,11.7,0,0,1,8.55-3.58q5.68,0,8.94,3.31t3.26,9.19a11,11,0,0,1-.14,2.3h-17a4.49,4.49,0,0,0,1.72,3.35,5.77,5.77,0,0,0,3.82,1.35C887.52,759.81,889.16,758.75,889.91,756.63Zm-10.29-6.32h9.75a4.39,4.39,0,0,0-1.3-2.89,4.82,4.82,0,0,0-3.6-1.23,4.67,4.67,0,0,0-3.43,1.27A4.58,4.58,0,0,0,879.62,750.31Z"/><path class="cls-2" d="M907.6,765.4h-7.45V741h7.1v2.8a6.33,6.33,0,0,1,2.92-2.55,9.41,9.41,0,0,1,4.09-1q5.25,0,7.2,3.82a8.63,8.63,0,0,1,7.55-3.82,9.27,9.27,0,0,1,6.42,2.33q2.6,2.33,2.6,7V765.4h-7.21V751.29a4.4,4.4,0,0,0-1-3,3.56,3.56,0,0,0-2.89-1.15,3.78,3.78,0,0,0-3,1.23,4.26,4.26,0,0,0-1.07,2.93V765.4h-7.35V751.29a4.36,4.36,0,0,0-1-3,3.65,3.65,0,0,0-2.91-1.15,3.68,3.68,0,0,0-2.94,1.23,4.34,4.34,0,0,0-1.08,3Z"/><path class="cls-2" d="M959,756.63l6.22,1.76a10.08,10.08,0,0,1-3.87,5.56,12,12,0,0,1-7.35,2.18,13.19,13.19,0,0,1-9.09-22.24,11.7,11.7,0,0,1,8.55-3.58q5.68,0,8.94,3.31t3.26,9.19a11,11,0,0,1-.14,2.3h-17a4.49,4.49,0,0,0,1.72,3.35,5.76,5.76,0,0,0,3.82,1.35C956.61,759.81,958.25,758.75,959,756.63Zm-10.29-6.32h9.75a4.39,4.39,0,0,0-1.3-2.89,4.82,4.82,0,0,0-3.6-1.23,4.67,4.67,0,0,0-3.43,1.27A4.58,4.58,0,0,0,948.71,750.31Z"/><path class="cls-2" d="M976.69,751.43v14h-7.45V741h7.2v2.8a6.27,6.27,0,0,1,2.87-2.53,9.24,9.24,0,0,1,3.94-.9c2.91,0,5.12.9,6.62,2.72a10.58,10.58,0,0,1,2.25,7V765.4h-7.45v-14a4.49,4.49,0,0,0-1-3.06,3.72,3.72,0,0,0-3-1.15,3.76,3.76,0,0,0-2.91,1.2A4.32,4.32,0,0,0,976.69,751.43Z"/><path class="cls-2" d="M1006.09,733.94V741h4.75v6.52h-4.75v9.12c0,1.7.89,2.54,2.69,2.54a9.09,9.09,0,0,0,2-.24v6.17a8.76,8.76,0,0,1-3.87.69,8.16,8.16,0,0,1-6-2.11,7.56,7.56,0,0,1-2.18-5.73V747.56h-4.32V741h1.23a3.52,3.52,0,0,0,2.82-1.1,4.24,4.24,0,0,0,.95-2.86v-3.14Z"/><path class="cls-2" d="M1030.83,765.4a11.94,11.94,0,0,1-.2-2.45,5.51,5.51,0,0,1-2.69,2.23,9.9,9.9,0,0,1-3.82.76,8.73,8.73,0,0,1-6.79-2.72,9.72,9.72,0,0,1-2.47-6.79V741h7.44v13.82a4.5,4.5,0,0,0,1,3,3.6,3.6,0,0,0,2.91,1.18,4,4,0,0,0,3-1.15,4.22,4.22,0,0,0,1.1-3V741h7.45v20a36.12,36.12,0,0,0,.24,4.36Z"/><path class="cls-2" d="M1050.53,765.4h-7.45V741h7.1v2.8a6.33,6.33,0,0,1,2.92-2.55,9.37,9.37,0,0,1,4.09-1q5.25,0,7.2,3.82a8.63,8.63,0,0,1,7.55-3.82,9.27,9.27,0,0,1,6.42,2.33q2.6,2.33,2.6,7V765.4h-7.21V751.29a4.4,4.4,0,0,0-1-3,3.56,3.56,0,0,0-2.89-1.15,3.78,3.78,0,0,0-3,1.23,4.26,4.26,0,0,0-1.08,2.93V765.4h-7.35V751.29a4.36,4.36,0,0,0-1-3,3.65,3.65,0,0,0-2.92-1.15,3.71,3.71,0,0,0-2.94,1.23,4.38,4.38,0,0,0-1.07,3Z"/><path class="cls-2" d="M1087.18,764.34a4.88,4.88,0,0,1-1.47-3.55,5,5,0,0,1,5-5,4.9,4.9,0,0,1,3.55,1.47,4.8,4.8,0,0,1,1.49,3.53,4.9,4.9,0,0,1-1.49,3.53,4.83,4.83,0,0,1-3.55,1.52A4.76,4.76,0,0,1,1087.18,764.34Z"/><path class="cls-2" d="M1100.8,766.38V741h7.45v26.12a8.36,8.36,0,0,1-2.18,6,7.77,7.77,0,0,1-5.86,2.27,10.72,10.72,0,0,1-4.11-.68v-6.18a7.8,7.8,0,0,0,2.2.3A2.21,2.21,0,0,0,1100.8,766.38Zm.64-29.7a4.36,4.36,0,0,1,0-6.17,4.14,4.14,0,0,1,3-1.27,4.35,4.35,0,0,1,4.41,4.36,4.17,4.17,0,0,1-1.3,3.08,4.31,4.31,0,0,1-3.11,1.28A4.15,4.15,0,0,1,1101.44,736.68Z"/><path class="cls-2" d="M1111.58,758.49l6.32-1.13a3.56,3.56,0,0,0,1.06,2.33,3.7,3.7,0,0,0,2.76,1,3.2,3.2,0,0,0,2.11-.62,1.87,1.87,0,0,0,.74-1.49c0-1-.81-1.65-2.4-2l-2.8-.64a9.79,9.79,0,0,1-5.49-2.77,6.89,6.89,0,0,1-1.76-4.72,7.37,7.37,0,0,1,2.67-5.74,9.74,9.74,0,0,1,6.69-2.35c3.17,0,5.54.76,7.13,2.28a7.85,7.85,0,0,1,2.62,5l-6.17,1.13a3.48,3.48,0,0,0-1-2.16,3.43,3.43,0,0,0-2.47-.83,3.07,3.07,0,0,0-1.87.59,1.82,1.82,0,0,0-.78,1.52c0,1,.64,1.58,1.91,1.81l3.24.64a10.05,10.05,0,0,1,5.58,2.79,6.87,6.87,0,0,1,1.91,4.85,7.74,7.74,0,0,1-2.55,5.81c-1.69,1.61-4.08,2.42-7.15,2.42a13.57,13.57,0,0,1-4.78-.78,7.77,7.77,0,0,1-3.18-2,10.39,10.39,0,0,1-1.67-2.48A7.32,7.32,0,0,1,1111.58,758.49Z"/></g><g id="Logo"><rect class="cls-3" x="765.64" y="187.33" width="216.13" height="216.13" rx="22.88"/><g class="cls-4"><polyline class="cls-5" points="1017.68 225.11 1002.68 225.11 1002.68 240.11"/><line class="cls-6" x1="1002.68" y1="274.26" x2="1002.68" y2="393.8"/><polyline class="cls-5" points="1002.68 410.88 1002.68 425.88 987.68 425.88"/><line class="cls-7" x1="956.48" y1="425.88" x2="847.27" y2="425.88"/><polyline class="cls-5" points="831.67 425.88 816.67 425.88 816.67 440.88"/><line class="cls-8" x1="816.67" y1="475.49" x2="816.67" y2="527.41"/><polyline class="cls-5" points="816.67 544.72 816.67 559.72 831.67 559.72"/><line class="cls-9" x1="859.63" y1="559.72" x2="1125.18" y2="559.72"/><polyline class="cls-5" points="1139.15 559.72 1154.15 559.72 1154.15 544.72"/><line class="cls-10" x1="1154.16" y1="517.03" x2="1154.16" y2="253.95"/><polyline class="cls-5" points="1154.15 240.11 1154.15 225.11 1139.15 225.11"/><line class="cls-11" x1="1114.86" y1="225.11" x2="1029.83" y2="225.11"/></g></g></g></svg>